<svg preserveAspectRatio="none" width="100%" height="100%" overflow="visible" style="display: block;" viewBox="0 0 48 48" fill="none" xmlns="http://www.w3.org/2000/svg">
<g id="SVG">
<path id="Vector" d="M24 40V44" stroke="var(--stroke-0, #171717)" stroke-width="3.5" stroke-linecap="round" stroke-linejoin="round"/>
<path id="Vector_2" d="M24 4V8" stroke="var(--stroke-0, #171717)" stroke-width="3.5" stroke-linecap="round" stroke-linejoin="round"/>
<path id="Vector_3" d="M34 40V44" stroke="var(--stroke-0, #171717)" stroke-width="3.5" stroke-linecap="round" stroke-linejoin="round"/>
<path id="Vector_4" d="M34 4V8" stroke="var(--stroke-0, #171717)" stroke-width="3.5" stroke-linecap="round" stroke-linejoin="round"/>
<path id="Vector_5" d="M4 24H8" stroke="var(--stroke-0, #171717)" stroke-width="3.5" stroke-linecap="round" stroke-linejoin="round"/>
<path id="Vector_6" d="M4 34H8" stroke="var(--stroke-0, #171717)" stroke-width="3.5" stroke-linecap="round" stroke-linejoin="round"/>
<path id="Vector_7" d="M4 14H8" stroke="var(--stroke-0, #171717)" stroke-width="3.5" stroke-linecap="round" stroke-linejoin="round"/>
<path id="Vector_8" d="M40 24H44" stroke="var(--stroke-0, #171717)" stroke-width="3.5" stroke-linecap="round" stroke-linejoin="round"/>
<path id="Vector_9" d="M40 34H44" stroke="var(--stroke-0, #171717)" stroke-width="3.5" stroke-linecap="round" stroke-linejoin="round"/>
<path id="Vector_10" d="M40 14H44" stroke="var(--stroke-0, #171717)" stroke-width="3.5" stroke-linecap="round" stroke-linejoin="round"/>
<path id="Vector_11" d="M14 40V44" stroke="var(--stroke-0, #171717)" stroke-width="3.5" stroke-linecap="round" stroke-linejoin="round"/>
<path id="Vector_12" d="M14 4V8" stroke="var(--stroke-0, #171717)" stroke-width="3.5" stroke-linecap="round" stroke-linejoin="round"/>
<path id="Vector_13" d="M36 8H12C9.79086 8 8 9.79086 8 12V36C8 38.2091 9.79086 40 12 40H36C38.2091 40 40 38.2091 40 36V12C40 9.79086 38.2091 8 36 8Z" stroke="var(--stroke-0, #171717)" stroke-width="3.5" stroke-linecap="round" stroke-linejoin="round"/>
<path id="Vector_14" d="M30 16H18C16.8954 16 16 16.8954 16 18V30C16 31.1046 16.8954 32 18 32H30C31.1046 32 32 31.1046 32 30V18C32 16.8954 31.1046 16 30 16Z" stroke="var(--stroke-0, #171717)" stroke-width="3.5" stroke-linecap="round" stroke-linejoin="round"/>
</g>
</svg>
